<svg width="24" height="24" viewBox="0 0 24 24" fill="none" xmlns="http://www.w3.org/2000/svg">
<g>
<path fill-rule="evenodd" clip-rule="evenodd" d="M12.041 1.93512C5.41302 1.93512 0.0410156 6.01129 0.0410156 11.0394C0.0410156 14.1669 2.11902 16.923 5.28302 18.5623L3.94968 23.3383C3.92535 23.4325 3.93091 23.5318 3.96562 23.6229C4.00033 23.714 4.06255 23.7927 4.14404 23.8484C4.22553 23.9042 4.32243 23.9344 4.4219 23.9351C4.52137 23.9358 4.61871 23.9069 4.70102 23.8523L10.539 20.0681C11.0317 20.115 11.5317 20.1417 12.041 20.1417C18.6684 20.1417 24.041 16.0649 24.041 11.0374C24.041 6.00999 18.6684 1.93512 12.041 1.93512Z" fill="black" fill-opacity="0.9"/>
</g>
</svg>
